# xmcd
#
# Track frame offsets:
#	150
#	18593
#	35364
#	52616
#	68517
#	87844
#	112619
#	129934
#	147845
#	166251
#	185335
#	201823
#	221012
#	240958
#	258354
#	278105
#	297954
#
# Disc length: 4205 seconds
#
# Revision: 2
# Processed by: cddbd v1.4PL0 Copyright (c) Steve Scherf et al.
# Submitted via: CDmax 1.8
#
DISCID=dd106b11
DTITLE=Various Artist - Endless
DYEAR=1900
DGENRE=Blues
TTITLE0=After All
TTITLE1=Ever Since The World Began
TTITLE2=I'll Always Love You
TTITLE3=Exchange Of Heart
TTITLE4=Hand To Heaven
TTITLE5=Take Me, I'll Follow
TTITLE6=I'll Be Over You
TTITLE7=Can't We Try
TTITLE8=What If We Fall In Love
TTITLE9=First Love
TTITLE10=Never Thought
TTITLE11=Never Gonna Let You Go
TTITLE12=How Do I Love you
TTITLE13=And When She Danced
TTITLE14=In My Dreams
TTITLE15=Endless Love
TTITLE16=All Out Of Love
EXTD=
EXTT0=
EXTT1=
EXTT2=
EXTT3=
EXTT4=
EXTT5=
EXTT6=
EXTT7=
EXTT8=
EXTT9=
EXTT10=
EXTT11=
EXTT12=
EXTT13=
EXTT14=
EXTT15=
EXTT16=
PLAYORDER=
